<svg width="58" height="40" viewBox="0 0 58 40" fill="none" xmlns="http://www.w3.org/2000/svg">
<path d="M6 0.5H52C55.0376 0.5 57.5 2.96243 57.5 6V34C57.5 37.0376 55.0376 39.5 52 39.5H6C2.96243 39.5 0.5 37.0376 0.5 34V6C0.5 3.05741 2.81084 0.654222 5.7168 0.506836L6 0.5Z" fill="white"/>
<path d="M6 0.5H52C55.0376 0.5 57.5 2.96243 57.5 6V34C57.5 37.0376 55.0376 39.5 52 39.5H6C2.96243 39.5 0.5 37.0376 0.5 34V6C0.5 3.05741 2.81084 0.654222 5.7168 0.506836L6 0.5Z" stroke="#E5E5E5"/>
<path d="M50.724 3H6.12213C4.39783 3 3 4.39783 3 6.12213V34.6673C3 36.3916 4.39783 37.7895 6.12213 37.7895H50.724C52.4483 37.7895 53.8461 36.3916 53.8461 34.6673V6.12213C53.8461 4.39783 52.4483 3 50.724 3Z" fill="white"/>
<path fill-rule="evenodd" clip-rule="evenodd" d="M10.4326 24.1454C10.4326 23.4457 10.067 23.4917 9.71729 23.4844V23.282C10.0205 23.2968 10.3314 23.2968 10.6355 23.2968C10.9621 23.2968 11.4056 23.282 11.9817 23.282C13.9966 23.282 15.0942 24.6275 15.0942 26.0053C15.0942 26.7764 14.6428 28.7134 11.8881 28.7134C11.4916 28.7134 11.1254 28.6981 10.7598 28.6981C10.41 28.6981 10.067 28.7053 9.71729 28.7134V28.511C10.1837 28.4639 10.41 28.4486 10.4326 27.9197V24.1454ZM11.1951 27.7948C11.1951 28.3941 11.6235 28.4639 12.0046 28.4639C13.6858 28.4639 14.2376 27.1959 14.2376 26.0366C14.2376 24.5816 13.304 23.5313 11.8024 23.5313C11.4827 23.5313 11.3355 23.554 11.1951 23.5624V27.7948Z" fill="#1A1919"/>
<path fill-rule="evenodd" clip-rule="evenodd" d="M15.3669 28.5111H15.5144C15.7322 28.5111 15.888 28.5111 15.888 28.2537V26.1452C15.888 25.8034 15.7715 25.7561 15.4832 25.6009V25.4767C15.8489 25.3668 16.285 25.22 16.3158 25.1966C16.3706 25.1653 16.4166 25.157 16.4562 25.157C16.4943 25.157 16.5104 25.2038 16.5104 25.2667V28.2537C16.5104 28.5111 16.6818 28.5111 16.9 28.5111H17.0317V28.7135C16.7671 28.7135 16.4943 28.6982 16.2151 28.6982C15.935 28.6982 15.6546 28.7054 15.3669 28.7135V28.5111ZM16.1994 23.9591C15.9967 23.9591 15.8181 23.7724 15.8181 23.5702C15.8181 23.3753 16.0052 23.196 16.1994 23.196C16.4014 23.196 16.5808 23.3599 16.5808 23.5702C16.5808 23.7806 16.4092 23.9591 16.1994 23.9591Z" fill="#1A1919"/>
<path fill-rule="evenodd" clip-rule="evenodd" d="M17.771 26.192C17.771 25.9047 17.6851 25.8269 17.32 25.6788V25.5311C17.654 25.4223 17.9728 25.3207 18.3467 25.157C18.3703 25.157 18.3929 25.1726 18.3929 25.2348V25.7407C18.8371 25.4223 19.2184 25.157 19.7406 25.157C20.401 25.157 20.6344 25.6396 20.6344 26.2465V28.2537C20.6344 28.5111 20.8061 28.5111 21.0237 28.5111H21.1641V28.7135C20.8908 28.7135 20.6189 28.6982 20.339 28.6982C20.0587 28.6982 19.7784 28.7053 19.4983 28.7135V28.5111H19.6387C19.8566 28.5111 20.0116 28.5111 20.0116 28.2537V26.2393C20.0116 25.7952 19.7406 25.5776 19.2965 25.5776C19.0473 25.5776 18.6504 25.7794 18.3929 25.9514V28.2537C18.3929 28.5111 18.5649 28.5111 18.7828 28.5111H18.9226V28.7135C18.6504 28.7135 18.378 28.6982 18.0973 28.6982C17.8179 28.6982 17.5374 28.7053 17.2576 28.7135V28.5111H17.3979C17.6155 28.5111 17.771 28.5111 17.771 28.2537V26.192Z" fill="#1A1919"/>
<path fill-rule="evenodd" clip-rule="evenodd" d="M21.7555 26.5661C21.7396 26.6362 21.7396 26.7527 21.7555 27.0174C21.8013 27.7564 22.277 28.3631 22.8989 28.3631C23.3274 28.3631 23.6622 28.1295 23.9496 27.8422L24.0583 27.9511C23.7002 28.4257 23.2568 28.8306 22.6193 28.8306C21.3817 28.8306 21.1328 27.6316 21.1328 27.1339C21.1328 25.6086 22.1596 25.157 22.7038 25.157C23.3348 25.157 24.0122 25.5539 24.0194 26.3789C24.0194 26.4262 24.0194 26.4723 24.0122 26.5191L23.9418 26.5661H21.7555ZM23.1333 26.3169C23.3274 26.3169 23.3502 26.2156 23.3502 26.1218C23.3502 25.7257 23.1091 25.4066 22.6732 25.4066C22.199 25.4066 21.872 25.7561 21.7787 26.3169H23.1333Z" fill="#1A1919"/>
<path fill-rule="evenodd" clip-rule="evenodd" d="M24.1987 28.5111H24.409C24.626 28.5111 24.7819 28.5111 24.7819 28.2537V26.0677C24.7819 25.8269 24.4942 25.7794 24.3773 25.7173V25.6009C24.9453 25.3596 25.2567 25.157 25.3279 25.157C25.3734 25.157 25.3967 25.1804 25.3967 25.2586V25.959H25.4132C25.6071 25.6556 25.9345 25.157 26.4088 25.157C26.6033 25.157 26.852 25.2892 26.852 25.5695C26.852 25.7794 26.7049 25.9671 26.4871 25.9671C26.2451 25.9671 26.2451 25.7794 25.9725 25.7794C25.8404 25.7794 25.4046 25.959 25.4046 26.4262V28.2537C25.4046 28.5111 25.5601 28.5111 25.7781 28.5111H26.2133V28.7135C25.7854 28.7053 25.4597 28.6982 25.1248 28.6982C24.8057 28.6982 24.4787 28.7053 24.1987 28.7135V28.5111Z" fill="#1A1919"/>
<path fill-rule="evenodd" clip-rule="evenodd" d="M27.1942 27.6315C27.2957 28.145 27.6063 28.5814 28.1754 28.5814C28.6337 28.5814 28.8048 28.3009 28.8048 28.0288C28.8048 27.1102 27.109 27.4061 27.109 26.1535C27.109 25.7172 27.4594 25.157 28.3154 25.157C28.5639 25.157 28.8984 25.2276 29.2016 25.3834L29.2563 26.1764H29.0774C28.9996 25.6865 28.7277 25.4065 28.2291 25.4065C27.9179 25.4065 27.6225 25.5851 27.6225 25.9198C27.6225 26.8308 29.4273 26.5501 29.4273 27.7719C29.4273 28.2851 29.0153 28.8305 28.0891 28.8305C27.7781 28.8305 27.4117 28.7214 27.1402 28.5657L27.0542 27.6707L27.1942 27.6315Z" fill="#1A1919"/>
<path fill-rule="evenodd" clip-rule="evenodd" d="M36.4536 24.69H36.2595C36.1115 23.7805 35.4655 23.4143 34.5946 23.4143C33.6988 23.4143 32.3998 24.0131 32.3998 25.8805C32.3998 27.4529 33.5206 28.5814 34.7186 28.5814C35.4883 28.5814 36.1278 28.052 36.2831 27.2345L36.4621 27.281L36.2831 28.4174C35.9563 28.62 35.0767 28.8304 34.5626 28.8304C32.7426 28.8304 31.5911 27.6553 31.5911 25.9045C31.5911 24.309 33.015 23.1647 34.5401 23.1647C35.1702 23.1647 35.777 23.3677 36.3762 23.5779L36.4536 24.69Z" fill="#1A1919"/>
<path fill-rule="evenodd" clip-rule="evenodd" d="M36.7346 28.5111H36.8819C37.1005 28.5111 37.2558 28.5111 37.2558 28.2538V23.9207C37.2558 23.4144 37.1393 23.399 36.8433 23.3132V23.1886C37.1544 23.0876 37.4815 22.9478 37.6453 22.8537C37.7298 22.8078 37.7926 22.768 37.8155 22.768C37.863 22.768 37.8785 22.8153 37.8785 22.8778V28.2538C37.8785 28.5111 38.0498 28.5111 38.2674 28.5111H38.3992V28.7135C38.1354 28.7135 37.863 28.6982 37.5828 28.6982C37.3028 28.6982 37.0229 28.7054 36.7346 28.7135V28.5111Z" fill="#1A1919"/>
<path fill-rule="evenodd" clip-rule="evenodd" d="M41.7307 28.285C41.7307 28.4256 41.8158 28.4329 41.9478 28.4329C42.0416 28.4329 42.1579 28.4256 42.2598 28.4256V28.5894C41.9249 28.6202 41.2866 28.7837 41.1385 28.8304L41.0997 28.8067V28.1764C40.6334 28.5575 40.275 28.8304 39.7218 28.8304C39.3017 28.8304 38.8662 28.5575 38.8662 27.9048V25.9121C38.8662 25.7095 38.8353 25.515 38.4001 25.4766V25.3284C38.6805 25.3207 39.3017 25.2742 39.4032 25.2742C39.4895 25.2742 39.4895 25.3284 39.4895 25.4999V27.5073C39.4895 27.7409 39.4895 28.4094 40.1664 28.4094C40.4304 28.4094 40.7806 28.2076 41.1073 27.9356V25.8419C41.1073 25.6864 40.734 25.6009 40.4543 25.5235V25.3835C41.154 25.336 41.5902 25.2742 41.6679 25.2742C41.7307 25.2742 41.7307 25.3284 41.7307 25.4143V28.285Z" fill="#1A1919"/>
<path fill-rule="evenodd" clip-rule="evenodd" d="M43.2787 25.7174C43.5898 25.4533 44.0102 25.157 44.4381 25.157C45.3409 25.157 45.8857 25.9437 45.8857 26.7917C45.8857 27.8108 45.1383 28.8306 44.025 28.8306C43.4499 28.8306 43.1463 28.6431 42.9436 28.5576L42.7109 28.7366L42.5477 28.6514C42.6173 28.1923 42.6566 27.741 42.6566 27.2661V23.9207C42.6566 23.4144 42.5394 23.399 42.2437 23.3132V23.1886C42.5552 23.0876 42.8817 22.9478 43.0451 22.8537C43.131 22.8078 43.193 22.768 43.2167 22.768C43.263 22.768 43.2787 22.8155 43.2787 22.8778V25.7174ZM43.2787 27.834C43.2787 28.1295 43.5591 28.628 44.0802 28.628C44.9126 28.628 45.2627 27.8108 45.2627 27.1179C45.2627 26.2777 44.6253 25.5776 44.0185 25.5776C43.7294 25.5776 43.4887 25.7646 43.2787 25.9437V27.834Z" fill="#1A1919"/>
<path fill-rule="evenodd" clip-rule="evenodd" d="M13.909 32.5307L13.9174 32.5223V30.935C13.9174 30.5876 13.6758 30.5368 13.5489 30.5368H13.4555V30.4097C13.6549 30.4097 13.8496 30.4265 14.0484 30.4265C14.222 30.4265 14.3963 30.4097 14.5693 30.4097V30.5368H14.5063C14.3279 30.5368 14.1289 30.5706 14.1289 31.0745V33.0009C14.1289 33.1494 14.133 33.2974 14.1538 33.4288H13.9929L11.8128 30.998V32.7429C11.8128 33.1115 11.8844 33.2379 12.2104 33.2379H12.2825V33.3652C12.1005 33.3652 11.9186 33.3487 11.7365 33.3487C11.5464 33.3487 11.3514 33.3652 11.1606 33.3652V33.2379H11.2201C11.5122 33.2379 11.6011 33.0389 11.6011 32.7012V30.9173C11.6011 30.6804 11.4057 30.5368 11.2159 30.5368H11.1606V30.4097C11.3212 30.4097 11.4866 30.4265 11.6472 30.4265C11.7747 30.4265 11.8974 30.4097 12.0244 30.4097L13.909 32.5307Z" fill="#1A1919"/>
<path fill-rule="evenodd" clip-rule="evenodd" d="M14.1538 33.4466L13.9795 33.4406L11.8307 31.0458V32.7428C11.8358 33.1109 11.8917 33.2156 12.2105 33.2196H12.3013V33.3832H12.2824C12.0993 33.3832 11.9171 33.3663 11.7364 33.3663C11.5469 33.3663 11.3523 33.3832 11.1604 33.3832H11.1418V33.2196H11.2201C11.4999 33.218 11.5799 33.0382 11.5829 32.701V30.9178C11.5821 30.6923 11.3972 30.5551 11.216 30.5551H11.1418V30.3912H11.1604C11.3223 30.3912 11.488 30.4077 11.6469 30.4077C11.7732 30.4077 11.8955 30.3912 12.0382 30.3978L13.899 32.4923V30.935C13.8969 30.5988 13.6721 30.5579 13.549 30.5551H13.4369V30.3912H13.4556C13.6556 30.3912 13.8506 30.4077 14.0483 30.4077C14.2207 30.4077 14.3942 30.3912 14.5692 30.3912H14.5878V30.5551H14.5062C14.3314 30.5596 14.1521 30.575 14.1469 31.0744V33.0008C14.1469 33.1491 14.1515 33.2969 14.1719 33.4254L14.1758 33.4466H14.1538ZM13.993 33.4096H14.1332C14.1142 33.2823 14.1109 33.1417 14.1109 33.0008V31.0744C14.1109 30.5662 14.3239 30.5183 14.5062 30.5179H14.5508V30.4278C14.3839 30.4292 14.2167 30.4445 14.0483 30.4445C13.8544 30.4445 13.6659 30.4292 13.4746 30.4278L13.4741 30.5179H13.549C13.6791 30.5183 13.9357 30.5761 13.9357 30.935L13.93 32.5355L13.9217 32.5437L13.9073 32.5574L12.0243 30.4278C11.8985 30.4278 11.776 30.4445 11.6469 30.4445C11.4917 30.4445 11.3327 30.4292 11.1792 30.4278L11.1784 30.5179H11.216C11.4146 30.5183 11.6189 30.6698 11.6189 30.9178V32.701C11.6189 33.0398 11.5246 33.2561 11.2201 33.2573L11.1792 33.2561V33.347C11.3625 33.3456 11.5515 33.33 11.7364 33.33C11.913 33.33 12.0893 33.3456 12.2641 33.347V33.2573H12.2105C11.8773 33.2561 11.7948 33.1109 11.7945 32.7428V30.9505L13.993 33.4096ZM13.899 32.5223V32.5206L13.8956 32.518L13.899 32.5223Z" fill="#1A1919"/>
<path fill-rule="evenodd" clip-rule="evenodd" d="M15.2037 30.6213C14.8858 30.6213 14.8734 30.6979 14.81 31.0066H14.6829C14.6995 30.888 14.7205 30.7696 14.7337 30.6468C14.7507 30.5277 14.7591 30.4096 14.7591 30.2872H14.8606C14.8947 30.4143 15.0005 30.4096 15.1154 30.4096H17.2993C17.4142 30.4096 17.5198 30.4054 17.5285 30.2783L17.6296 30.2956C17.6132 30.4096 17.5959 30.5241 17.5836 30.6386C17.5752 30.7529 17.5752 30.8669 17.5752 30.9812L17.448 31.0283C17.4393 30.8718 17.4184 30.6213 17.1346 30.6213H16.4402V32.8739C16.4402 33.2005 16.5886 33.2379 16.7915 33.2379H16.8723V33.3651C16.7071 33.3651 16.4106 33.3488 16.1824 33.3488C15.928 33.3488 15.6314 33.3651 15.4661 33.3651V33.2379H15.5469C15.7802 33.2379 15.8982 33.2171 15.8982 32.8827V30.6213H15.2037Z" fill="#1A1919"/>
<path fill-rule="evenodd" clip-rule="evenodd" d="M16.8725 33.3832C16.7056 33.3832 16.4095 33.3665 16.1822 33.3665C15.9282 33.3665 15.632 33.3832 15.466 33.3832H15.4479V33.2196H15.5468C15.7801 33.2142 15.8739 33.2111 15.8792 32.8827V30.6395H15.2036V30.6024H15.9158V32.8827C15.9158 33.2227 15.7788 33.257 15.5468 33.2573H15.4841V33.3467C15.6511 33.3456 15.9363 33.3301 16.1822 33.3301C16.4026 33.3301 16.6855 33.3456 16.8533 33.3467V33.2573H16.7915C16.5865 33.257 16.4218 33.2067 16.4218 32.874V30.6024H17.1345C17.4186 30.6035 17.4562 30.8449 17.465 31.0025L17.5567 30.9687C17.5567 30.858 17.5572 30.7473 17.5647 30.6361C17.5772 30.5266 17.5926 30.4191 17.6085 30.3106L17.5442 30.2998C17.5244 30.4231 17.4051 30.4297 17.299 30.4281H15.0932C14.9935 30.4282 14.885 30.4234 14.8469 30.3052H14.777C14.7763 30.4223 14.7683 30.5359 14.7523 30.6488C14.7397 30.7651 14.7202 30.8768 14.7049 30.989H14.7952C14.8508 30.6936 14.8871 30.5983 15.2036 30.6024V30.6395C14.89 30.6457 14.8969 30.6981 14.8278 31.0109L14.8248 31.0254H14.6616L14.6639 31.0034C14.6812 30.8853 14.7027 30.7663 14.715 30.6434C14.7326 30.5259 14.7406 30.4085 14.7406 30.2871V30.2684H14.8751L14.8783 30.2817C14.9068 30.3885 14.9852 30.3893 15.0932 30.3911H17.299C17.4169 30.3893 17.5029 30.3877 17.5101 30.2769L17.5115 30.2569L17.5308 30.2607L17.6505 30.2796L17.6474 30.2984C17.6306 30.412 17.6141 30.5259 17.6012 30.6395C17.5934 30.753 17.5934 30.8667 17.5934 30.9811V30.994L17.5811 30.9989L17.4312 31.0538L17.4302 31.0292C17.4186 30.8699 17.4022 30.6395 17.1345 30.6395H16.4587V32.874C16.4628 33.1932 16.5895 33.2156 16.7915 33.2196H16.8905V33.3832H16.8725Z" fill="#1A1919"/>
<path fill-rule="evenodd" clip-rule="evenodd" d="M17.7649 33.2379H17.8246C17.9765 33.2379 18.1379 33.2172 18.1379 32.9967V30.7786C18.1379 30.5579 17.9765 30.5369 17.8246 30.5369H17.7649V30.4097C18.0223 30.4097 18.4637 30.4265 18.8187 30.4265C19.1749 30.4265 19.6147 30.4097 19.9026 30.4097C19.8952 30.5918 19.8992 30.8719 19.9118 31.0578L19.7841 31.0915C19.7638 30.8161 19.713 30.5965 19.2682 30.5965H18.6804V31.7051H19.1833C19.4373 31.7051 19.4926 31.5617 19.5177 31.3328H19.6447C19.6362 31.4982 19.6317 31.6633 19.6317 31.8282C19.6317 31.9894 19.6362 32.1502 19.6447 32.3108L19.5177 32.3361C19.4926 32.0824 19.4799 31.9174 19.1874 31.9174H18.6804V32.9033C18.6804 33.179 18.9249 33.179 19.1961 33.179C19.7044 33.179 19.9285 33.1448 20.0556 32.6627L20.1738 32.6919C20.1188 32.9168 20.0683 33.1405 20.0303 33.3652C19.759 33.3652 19.2721 33.3489 18.8918 33.3489C18.5098 33.3489 18.0065 33.3652 17.7649 33.3652V33.2379Z" fill="#1A1919"/>
<path fill-rule="evenodd" clip-rule="evenodd" d="M20.0298 33.3832C19.7582 33.3832 19.271 33.3656 18.8911 33.3656C18.5097 33.3656 18.0064 33.3832 17.7646 33.3832H17.7468V33.2196H17.8243C17.9774 33.2171 18.1168 33.2036 18.1188 32.9966V30.7786C18.1168 30.5716 17.9774 30.5579 17.8243 30.5551H17.7468V30.3912H17.7646C18.0233 30.3912 18.4637 30.4077 18.8185 30.4077C19.1744 30.4077 19.6141 30.3912 19.9024 30.3912H19.9212L19.9205 30.4107C19.9178 30.474 19.9161 30.5493 19.9161 30.629C19.9161 30.7754 19.9205 30.9358 19.9288 31.0563L19.9296 31.0714L19.9154 31.0757L19.7665 31.1146L19.7659 31.0929C19.7409 30.8181 19.704 30.6183 19.2681 30.6141H18.6974L18.697 31.6865H19.183C19.4271 31.6839 19.4707 31.5592 19.4995 31.3308L19.5005 31.3138H19.6633L19.663 31.3333C19.6548 31.4986 19.6498 31.6632 19.6498 31.8282C19.6498 31.9883 19.6548 32.149 19.663 32.3099L19.6633 32.3253L19.6479 32.3289L19.5005 32.3581L19.4995 32.3383C19.4702 32.0798 19.4683 31.9381 19.1873 31.935H18.6974V32.9032C18.698 33.1606 18.9199 33.1592 19.1958 33.1606C19.7057 33.1576 19.9098 33.1326 20.0374 32.6577L20.0417 32.6405L20.0595 32.6435L20.1952 32.6787L20.1914 32.6962C20.1364 32.9202 20.0859 33.1441 20.0477 33.3682L20.0444 33.3832H20.0298ZM20.0141 33.3467C20.0511 33.1326 20.0994 32.9188 20.1513 32.7057L20.068 32.6846C19.9412 33.1582 19.6955 33.2006 19.1958 33.1973C18.929 33.1973 18.6622 33.1973 18.6608 32.9032V31.8988H19.1873C19.483 31.8958 19.5128 32.074 19.5339 32.3149L19.6254 32.2961C19.6172 32.14 19.613 31.9833 19.613 31.8282C19.613 31.6692 19.6172 31.5105 19.6254 31.3507H19.5339C19.5101 31.5719 19.441 31.7262 19.183 31.7235H18.6608V30.5774H19.2681C19.7083 30.5739 19.7813 30.8018 19.8005 31.0681L19.8917 31.0433C19.8843 30.9239 19.8793 30.7704 19.8793 30.629C19.8793 30.5566 19.8813 30.4878 19.8837 30.4278C19.596 30.4292 19.1666 30.4445 18.8185 30.4445C18.4706 30.4445 18.0424 30.4292 17.7832 30.4278V30.5179H17.8243C17.9748 30.5183 18.155 30.5444 18.156 30.7786V32.9966C18.155 33.2304 17.9748 33.2561 17.8243 33.2573H17.7832V33.3467C18.0297 33.3459 18.5192 33.33 18.8911 33.33C19.2649 33.33 19.7412 33.3459 20.0141 33.3467Z" fill="#1A1919"/>
<path fill-rule="evenodd" clip-rule="evenodd" d="M20.7456 30.8582C20.7456 30.5494 20.576 30.5368 20.4446 30.5368H20.3682V30.4097C20.5038 30.4097 20.7663 30.4265 21.0248 30.4265C21.2783 30.4265 21.4819 30.4097 21.7062 30.4097C22.2389 30.4097 22.7142 30.5534 22.7142 31.1551C22.7142 31.5359 22.46 31.7685 22.1257 31.9005L22.8493 32.9838C22.9682 33.1629 23.0522 33.2131 23.2602 33.2379V33.3652C23.1202 33.3652 22.9847 33.3489 22.8454 33.3489C22.7142 33.3489 22.5781 33.3652 22.4475 33.3652C22.1212 32.9378 21.8415 32.4807 21.5665 31.993H21.2875V32.8997C21.2875 33.2256 21.4396 33.2379 21.6336 33.2379H21.7104V33.3652C21.4686 33.3652 21.224 33.3489 20.9822 33.3489C20.7789 33.3489 20.5798 33.3652 20.3682 33.3652V33.2379H20.4446C20.6018 33.2379 20.7456 33.1663 20.7456 33.0099V30.8582ZM21.2875 31.8403H21.4944C21.9183 31.8403 22.1465 31.6798 22.1465 31.1799C22.1465 30.8035 21.9051 30.5621 21.5279 30.5621C21.4008 30.5621 21.3466 30.5751 21.2875 30.5792V31.8403Z" fill="#1A1919"/>
<path fill-rule="evenodd" clip-rule="evenodd" d="M23.2601 33.3832C23.118 33.3832 22.9834 33.3663 22.8442 33.3663C22.7151 33.3663 22.5797 33.3832 22.4323 33.3762C22.1074 32.9499 21.8291 32.4953 21.5556 32.012H21.3054V32.8988C21.3101 33.2175 21.4378 33.2151 21.6335 33.2196H21.7285V33.3832H21.7098C21.4678 33.3832 21.2218 33.3663 20.9818 33.3663C20.7796 33.3663 20.5806 33.3832 20.368 33.3832H20.3496V33.2196H20.4444C20.5967 33.2185 20.7254 33.1521 20.7261 33.0098V30.8581C20.7228 30.5579 20.5759 30.5593 20.4444 30.5551H20.3496V30.3912H20.368C20.505 30.3912 20.7665 30.4077 21.0246 30.4077C21.2774 30.4077 21.4804 30.3912 21.7061 30.3912C22.2399 30.3923 22.7312 30.5393 22.7324 31.1544C22.7324 31.5365 22.4799 31.7753 22.1534 31.9084L22.8644 32.9736C22.9828 33.1493 23.0565 33.1932 23.2625 33.2196L23.2779 33.2221V33.3832H23.2601ZM21.2871 31.9746H21.5764L21.5817 31.9841C21.8574 32.4705 22.1356 32.9278 22.4473 33.347C22.5762 33.347 22.7123 33.33 22.8442 33.33C22.9792 33.33 23.11 33.3448 23.2415 33.3467V33.2537C23.043 33.2295 22.9498 33.1696 22.8342 32.9941L22.0971 31.8919L22.118 31.8835C22.4496 31.7528 22.6953 31.5266 22.6954 31.1544C22.6953 30.567 22.2383 30.4308 21.7061 30.4278C21.4831 30.4278 21.2796 30.4451 21.0246 30.4451C20.7759 30.4451 20.5246 30.4292 20.3861 30.4278V30.5179H20.4444C20.5759 30.5183 20.7629 30.5401 20.7629 30.8581V33.0098C20.7629 33.1797 20.6038 33.2569 20.4444 33.2573H20.3861V33.3467C20.5897 33.3459 20.783 33.33 20.9818 33.33C21.2183 33.33 21.4573 33.3459 21.6915 33.3467V33.2573H21.6335C21.4407 33.2569 21.2684 33.233 21.2684 32.8988V31.9746H21.2871ZM21.2871 31.8584H21.2684V30.562L21.2846 30.5608C21.3426 30.5561 21.3996 30.5444 21.5277 30.5444C21.9134 30.5444 22.1645 30.7949 22.1648 31.181C22.1637 31.6865 21.9214 31.8583 21.4942 31.8584H21.2871ZM21.4942 31.8224C21.9134 31.8183 22.1246 31.6729 22.1287 31.181C22.1262 30.8111 21.8965 30.5815 21.5277 30.5799C21.4135 30.5799 21.3594 30.5905 21.3054 30.5958V31.8224H21.4942Z" fill="#1A1919"/>
<path fill-rule="evenodd" clip-rule="evenodd" d="M26.1347 32.5307L26.1421 32.5223V30.935C26.1421 30.5876 25.9016 30.5368 25.7744 30.5368H25.6817V30.4097C25.8807 30.4097 26.0748 30.4265 26.2743 30.4265C26.4484 30.4265 26.6206 30.4097 26.7956 30.4097V30.5368H26.7318C26.5538 30.5368 26.355 30.5706 26.355 31.0745V33.0009C26.355 33.1494 26.3591 33.2974 26.38 33.4288H26.2197L24.0393 30.998V32.7429C24.0393 33.1115 24.1109 33.2379 24.4368 33.2379H24.509V33.3652C24.327 33.3652 24.1447 33.3487 23.9627 33.3487C23.7715 33.3487 23.5772 33.3652 23.3867 33.3652V33.2379H23.4456C23.7379 33.2379 23.8273 33.0389 23.8273 32.7012V30.9173C23.8273 30.6804 23.6323 30.5368 23.4418 30.5368H23.3867V30.4097C23.547 30.4097 23.7134 30.4265 23.8739 30.4265C23.9998 30.4265 24.1232 30.4097 24.2505 30.4097L26.1347 32.5307Z" fill="#1A1919"/>
<path fill-rule="evenodd" clip-rule="evenodd" d="M26.3797 33.4466L26.2059 33.4406L24.0568 31.046V32.7427C24.0618 33.1114 24.1175 33.2156 24.4368 33.2196H24.5265V33.3832H24.5081C24.3251 33.3832 24.1434 33.3656 23.962 33.3656C23.7729 33.3656 23.5773 33.3832 23.3866 33.3832H23.3677V33.2196H23.4456C23.7252 33.2185 23.8053 33.0382 23.8081 32.7V30.9172C23.8075 30.6915 23.623 30.5551 23.4418 30.5551H23.3677V30.3912H23.3866C23.5482 30.3912 23.714 30.4077 23.8738 30.4077C23.9982 30.4077 24.1207 30.3912 24.2627 30.3966L26.1242 32.4923V30.935C26.123 30.5988 25.8975 30.5571 25.7744 30.5551H25.6627V30.3912H25.6812C25.8812 30.3912 26.0763 30.4077 26.2743 30.4077C26.4467 30.4077 26.6201 30.3912 26.7947 30.3912H26.8134V30.5551H26.7317C26.557 30.5593 26.3771 30.575 26.3729 31.0744V33.0008C26.3729 33.1491 26.3765 33.2959 26.3982 33.4257L26.4002 33.4466H26.3797ZM26.2195 33.4096H26.3582C26.3397 33.2831 26.336 33.1417 26.336 33.0008V31.0744C26.3363 30.5662 26.5505 30.5191 26.7317 30.5179H26.7762V30.4278C26.6096 30.4292 26.4423 30.4445 26.2743 30.4445C26.0797 30.4445 25.8911 30.4292 25.6996 30.4278V30.5179H25.7744C25.9049 30.5191 26.1613 30.5761 26.1613 30.935L26.1552 32.5355L26.1475 32.5437L26.1342 32.5577L24.2504 30.4278C24.1245 30.4278 24.0016 30.4445 23.8738 30.4445C23.7167 30.4445 23.5585 30.4292 23.4047 30.4278V30.5179H23.4418C23.6411 30.5191 23.8447 30.6692 23.8447 30.9172V32.7C23.8447 33.0398 23.7491 33.2561 23.4456 33.2573L23.4047 33.2569V33.3469C23.5876 33.3456 23.7761 33.33 23.962 33.33C24.1395 33.33 24.3155 33.3456 24.4905 33.3469V33.2573H24.4368C24.1036 33.2569 24.0206 33.1114 24.0196 32.7427V30.9512L26.2195 33.4096ZM26.1242 32.5223V32.5212L26.121 32.518L26.1242 32.5223Z" fill="#1A1919"/>
<path fill-rule="evenodd" clip-rule="evenodd" d="M27.4763 32.7598C27.4336 32.9032 27.3825 33.0145 27.3825 33.0897C27.3825 33.217 27.5609 33.238 27.7002 33.238H27.7474V33.3651C27.5774 33.356 27.4046 33.3488 27.2342 33.3488C27.0818 33.3488 26.9302 33.356 26.7773 33.3651V33.238H26.8031C26.9679 33.238 27.1081 33.1404 27.1709 32.9625L27.8484 31.0198C27.9037 30.8627 27.98 30.6511 28.0058 30.4941C28.1404 30.4477 28.3105 30.3636 28.3906 30.3121C28.4037 30.3078 28.4116 30.3035 28.4244 30.3035C28.4372 30.3035 28.4451 30.3035 28.4544 30.3168C28.4669 30.3503 28.4792 30.3885 28.4924 30.4223L29.2717 32.637C29.3226 32.7848 29.3729 32.9414 29.4271 33.0691C29.4787 33.1879 29.5676 33.238 29.7079 33.238H29.7332V33.3651C29.5425 33.356 29.3514 33.3488 29.1492 33.3488C28.9416 33.3488 28.7292 33.356 28.5133 33.3651V33.238H28.56C28.6568 33.238 28.823 33.2212 28.823 33.1153C28.823 33.0606 28.7847 32.9462 28.7374 32.8101L28.5725 32.3192H27.6115L27.4763 32.7598ZM28.0944 30.884H28.0856L27.6921 32.0824H28.4832L28.0944 30.884Z" fill="#1A1919"/>
<path fill-rule="evenodd" clip-rule="evenodd" d="M29.7319 33.3832C29.5417 33.3751 29.3508 33.3656 29.1492 33.3656C28.9416 33.3656 28.7303 33.3751 28.5143 33.3832L28.4948 33.3842V33.2188H28.56C28.6581 33.2188 28.8036 33.1969 28.8039 33.1153C28.8049 33.067 28.7669 32.951 28.7203 32.8163L28.5591 32.3373H27.6251L27.4934 32.7652C27.4508 32.9092 27.3993 33.0211 27.4001 33.0899C27.4016 33.1933 27.5596 33.2188 27.7001 33.2188H27.7653V33.3842L27.746 33.3832C27.5768 33.3751 27.404 33.3656 27.2346 33.3656C27.0835 33.3656 26.9304 33.3751 26.7787 33.3832L26.759 33.3842V33.2188H26.803C26.9604 33.2185 27.0918 33.1285 27.153 32.9566L27.8311 31.0132C27.8858 30.8564 27.9627 30.6458 27.9992 30.4766C28.1321 30.4316 28.3024 30.3461 28.3837 30.295C28.3956 30.2908 28.4073 30.2854 28.4243 30.2854C28.4346 30.2847 28.4575 30.2875 28.4712 30.3096C28.4833 30.3444 28.4967 30.3823 28.5095 30.4165L29.289 32.631C29.3389 32.7792 29.3896 32.9356 29.445 33.0611C29.494 33.174 29.5718 33.2185 29.7078 33.2188H29.7507V33.3842L29.7319 33.3832ZM28.5318 33.3456C28.7412 33.3382 28.9469 33.3301 29.1492 33.3301C29.3455 33.3301 29.5301 33.3382 29.7141 33.3456V33.2569H29.7078C29.5626 33.2579 29.4628 33.2009 29.4109 33.076C29.3558 32.9481 29.3043 32.7909 29.2543 32.6427L28.4748 30.428C28.4619 30.3942 28.4499 30.3564 28.4388 30.3263C28.4346 30.3221 28.4356 30.3221 28.4322 30.3221H28.4243C28.4157 30.3221 28.4106 30.3247 28.3998 30.3274C28.3183 30.3803 28.1486 30.4638 28.0226 30.4968C27.9968 30.6572 27.9206 30.8687 27.8655 31.0257L27.1881 32.9686C27.1237 33.1526 26.9748 33.2573 26.803 33.2569H26.7959V33.3456C26.9411 33.3382 27.0876 33.3301 27.2346 33.3301C27.3984 33.3301 27.5653 33.3382 27.7274 33.3456V33.2569H27.7001C27.5619 33.255 27.3692 33.24 27.3644 33.0899C27.3647 33.006 27.4166 32.8976 27.4581 32.7545L27.5975 32.3015H28.5849L28.7544 32.8044C28.802 32.9406 28.8405 33.0534 28.8405 33.1153C28.8342 33.245 28.656 33.2545 28.56 33.2569H28.5318V33.3456ZM27.6663 32.1006L28.0717 30.8653H28.0944H28.1071L28.5095 32.1006H27.6663ZM27.717 32.0635H28.4582L28.0898 30.929L27.717 32.0635Z" fill="#1A1919"/>
<path fill-rule="evenodd" clip-rule="evenodd" d="M29.9193 30.6213C29.6018 30.6213 29.589 30.6979 29.5252 31.0066H29.3979C29.4146 30.888 29.4363 30.7696 29.4494 30.6468C29.4659 30.5277 29.4741 30.4096 29.4741 30.2872H29.5765C29.6097 30.4143 29.7158 30.4096 29.8301 30.4096H32.0152C32.1289 30.4096 32.2347 30.4054 32.2431 30.2783L32.3443 30.2956C32.3286 30.4096 32.3118 30.5241 32.2985 30.6386C32.2892 30.7529 32.2892 30.8669 32.2892 30.9812L32.1627 31.0283C32.1552 30.8718 32.1339 30.6213 31.8496 30.6213H31.1554V32.8739C31.1554 33.2005 31.3037 33.2379 31.5066 33.2379H31.5875V33.3651C31.4222 33.3651 31.1263 33.3488 30.8971 33.3488C30.6436 33.3488 30.3465 33.3651 30.1813 33.3651V33.2379H30.262C30.4953 33.2379 30.6134 33.2171 30.6134 32.8827V30.6213H29.9193Z" fill="#1A1919"/>
<path fill-rule="evenodd" clip-rule="evenodd" d="M31.5875 33.3832C31.4211 33.3832 31.1242 33.3665 30.8967 33.3665C30.6438 33.3665 30.3473 33.3832 30.1814 33.3832H30.1626V33.2196H30.2618C30.4953 33.2142 30.5889 33.2111 30.5945 32.8827L30.5943 30.6395H29.9192V30.6024H30.6316V32.8827C30.6316 33.2227 30.4944 33.2562 30.2618 33.257H30.1995V33.347C30.3668 33.3456 30.6513 33.3301 30.8967 33.3301C31.118 33.3301 31.4014 33.3456 31.5685 33.347V33.257H31.5063C31.3023 33.2562 31.1373 33.2071 31.1371 32.874V30.6024H31.8495C32.1339 30.6035 32.171 30.8449 32.1792 31.0025L32.2711 30.9687C32.2711 30.858 32.2718 30.7473 32.2804 30.6365C32.2918 30.5275 32.3079 30.4191 32.3232 30.311L32.2593 30.2998C32.2399 30.4231 32.1203 30.43 32.015 30.4281H29.8083C29.7084 30.4291 29.6004 30.4234 29.5619 30.305H29.4927C29.4917 30.4221 29.4834 30.5359 29.4667 30.6488C29.4552 30.7655 29.4348 30.8776 29.4187 30.989H29.5097C29.5653 30.6936 29.602 30.5977 29.9192 30.6024V30.6395C29.6052 30.6449 29.6121 30.6981 29.543 31.0109L29.54 31.0254H29.3765L29.3791 31.0044C29.3969 30.8853 29.4177 30.7663 29.4301 30.6444C29.4474 30.5259 29.4552 30.4085 29.4552 30.2871V30.2684H29.5897L29.5932 30.2817C29.6228 30.3885 29.6999 30.3893 29.8083 30.3911H32.015C32.1321 30.3893 32.2176 30.3877 32.2251 30.2772L32.2258 30.2569L32.2455 30.2607L32.3657 30.2796L32.3628 30.2984C32.3453 30.412 32.3293 30.5259 32.3165 30.6395C32.3079 30.753 32.3079 30.8669 32.3079 30.9811V30.994L32.2955 30.9989L32.1456 31.0538L32.145 31.0292C32.1339 30.8699 32.1171 30.6395 31.8495 30.6395H31.1735V32.874C31.1778 33.1932 31.3045 33.2156 31.5063 33.2196H31.605V33.3832H31.5875Z" fill="#1A1919"/>
<path fill-rule="evenodd" clip-rule="evenodd" d="M32.501 33.2379H32.5603C32.7128 33.2379 32.8731 33.2172 32.8731 32.9967V30.7786C32.8731 30.5579 32.7128 30.5369 32.5603 30.5369H32.501V30.4097C32.6662 30.4097 32.9198 30.4265 33.127 30.4265C33.3392 30.4265 33.5934 30.4097 33.7927 30.4097V30.5369H33.7333C33.5803 30.5369 33.4193 30.5579 33.4193 30.7786V32.9967C33.4193 33.2172 33.5803 33.2379 33.7333 33.2379H33.7927V33.3652C33.5894 33.3652 33.335 33.3489 33.1236 33.3489C32.9158 33.3489 32.6662 33.3652 32.501 33.3652V33.2379Z" fill="#1A1919"/>
<path fill-rule="evenodd" clip-rule="evenodd" d="M33.7929 33.3832C33.5881 33.3832 33.335 33.3656 33.1237 33.3656C32.9164 33.3656 32.6665 33.3832 32.501 33.3832H32.4829V33.2196H32.5605C32.7131 33.2171 32.8538 33.2036 32.8548 32.9966V30.7786C32.8538 30.5716 32.7131 30.5579 32.5605 30.5551H32.4829V30.3912H32.501C32.6665 30.3912 32.9212 30.4077 33.127 30.4077C33.3381 30.4077 33.5922 30.3912 33.7929 30.3912H33.8104V30.5551H33.7335C33.5785 30.5579 33.4393 30.5716 33.4378 30.7786V32.9966C33.4393 33.2036 33.5785 33.2171 33.7335 33.2196H33.8104V33.3832H33.7929ZM33.7736 33.3467V33.2569H33.7335C33.5816 33.2569 33.402 33.2304 33.402 32.9966V30.7786C33.402 30.5444 33.5816 30.5183 33.7335 30.5179H33.7736V30.4278C33.5784 30.4292 33.3332 30.4445 33.127 30.4445C32.9261 30.4445 32.6838 30.4292 32.5195 30.4278V30.5179H32.5605C32.7108 30.5183 32.8913 30.5444 32.8918 30.7786V32.9966C32.8913 33.2304 32.7108 33.2569 32.5605 33.2569H32.5195V33.3467C32.6826 33.3448 32.9221 33.33 33.1237 33.33C33.329 33.33 33.5739 33.3456 33.7736 33.3467Z" fill="#1A1919"/>
<path fill-rule="evenodd" clip-rule="evenodd" d="M35.4811 30.3462C36.3837 30.3462 37.1031 30.9057 37.1031 31.8075C37.1031 32.7815 36.4043 33.4288 35.5028 33.4288C34.6048 33.4288 33.9192 32.819 33.9192 31.9085C33.9192 31.0282 34.6007 30.3462 35.4811 30.3462ZM35.545 33.2424C36.3667 33.2424 36.5099 32.5179 36.5099 31.9005C36.5099 31.2817 36.1763 30.5325 35.473 30.5325C34.7323 30.5325 34.5119 31.1932 34.5119 31.7601C34.5119 32.5179 34.8593 33.2424 35.545 33.2424Z" fill="#1A1919"/>
<path fill-rule="evenodd" clip-rule="evenodd" d="M33.9004 31.9085C33.9022 31.0181 34.5915 30.3292 35.4809 30.3278V30.3648C34.6105 30.3648 33.9372 31.0376 33.9363 31.9085C33.938 32.8088 34.6138 33.4095 35.503 33.4097C36.3954 33.4095 37.0842 32.7714 37.0852 31.8069C37.0844 30.9163 36.3763 30.3656 35.4809 30.3648V30.3278C36.39 30.3287 37.1197 30.8937 37.1213 31.8069C37.1204 32.791 36.4133 33.445 35.503 33.4467C34.5973 33.445 33.9022 32.8291 33.9004 31.9085ZM34.4933 31.7601C34.4947 31.1903 34.717 30.5137 35.473 30.5137C36.1919 30.5153 36.5272 31.2784 36.5286 31.9005C36.5272 32.5179 36.382 33.2598 35.5452 33.2598V33.2238C36.3503 33.2232 36.4902 32.5179 36.4914 31.9005C36.4914 31.2871 36.1612 30.5522 35.473 30.551C34.7466 30.5518 34.532 31.1961 34.5301 31.7601C34.5303 32.5143 34.8747 33.2228 35.5452 33.2238V33.2598C34.8425 33.2591 34.4947 32.5223 34.4933 31.7601Z" fill="#1A1919"/>
<path fill-rule="evenodd" clip-rule="evenodd" d="M39.9563 32.5307L39.9651 32.5223V30.935C39.9651 30.5876 39.7229 30.5368 39.596 30.5368H39.5038V30.4097C39.7022 30.4097 39.8975 30.4265 40.0959 30.4265C40.2699 30.4265 40.4435 30.4097 40.6173 30.4097V30.5368H40.5536C40.3761 30.5368 40.1763 30.5706 40.1763 31.0745V33.0009C40.1763 33.1494 40.1808 33.2974 40.2023 33.4288H40.0412L37.8602 30.998V32.7429C37.8602 33.1115 37.9326 33.2379 38.2579 33.2379H38.3305V33.3652C38.1483 33.3652 37.9666 33.3487 37.7845 33.3487C37.5937 33.3487 37.3989 33.3652 37.2083 33.3652V33.2379H37.2678C37.5604 33.2379 37.6487 33.0389 37.6487 32.7012V30.9173C37.6487 30.6804 37.4546 30.5368 37.2631 30.5368H37.2083V30.4097C37.3692 30.4097 37.5341 30.4265 37.6954 30.4265C37.8222 30.4265 37.9443 30.4097 38.0718 30.4097L39.9563 32.5307Z" fill="#1A1919"/>
<path fill-rule="evenodd" clip-rule="evenodd" d="M40.2024 33.4466L40.0272 33.4406L37.8785 31.046V32.7428C37.8835 33.1114 37.9394 33.2151 38.2573 33.2188H38.3486V33.3832H38.3305C38.1472 33.3832 37.9655 33.3663 37.7844 33.3663C37.5946 33.3663 37.3997 33.3832 37.2077 33.3832H37.1904V33.2188H37.2675C37.5465 33.218 37.627 33.0382 37.6304 32.701V30.9172C37.6302 30.6915 37.4451 30.5551 37.2632 30.5551H37.1904V30.3912H37.2077C37.3701 30.3912 37.5352 30.4077 37.6951 30.4077C37.8207 30.4077 37.9424 30.3912 38.086 30.3978L39.9464 32.4923V30.935C39.945 30.5988 39.7194 30.5579 39.5959 30.5551H39.4844V30.3912H39.5038C39.7027 30.3912 39.898 30.4077 40.0954 30.4077C40.2686 30.4077 40.4414 30.3912 40.6173 30.3912H40.6351V30.5551H40.5533C40.3788 30.5596 40.1986 30.5756 40.1952 31.0744V33.0008C40.1952 33.1491 40.1986 33.2969 40.2191 33.4257L40.2227 33.4466H40.2024ZM40.0411 33.4096H40.1799C40.162 33.2823 40.1578 33.1417 40.1578 33.0008V31.0744C40.1578 30.5654 40.3716 30.5191 40.5533 30.5179H40.5992V30.4278C40.4311 30.4292 40.2646 30.4445 40.0954 30.4445C39.9025 30.4445 39.7132 30.4292 39.5215 30.4278V30.5179H39.5959C39.7267 30.5191 39.9823 30.5769 39.9823 30.935L39.9779 32.5355L39.9697 32.5437L39.9562 32.5577L38.0719 30.4278C37.9466 30.4278 37.8233 30.4445 37.6951 30.4445C37.539 30.4445 37.38 30.4292 37.226 30.4278V30.5179H37.2632C37.4622 30.5191 37.6668 30.6692 37.6668 30.9172V32.701C37.6668 33.0398 37.5722 33.2561 37.2675 33.2573L37.226 33.2569V33.3469C37.4099 33.3456 37.5983 33.33 37.7844 33.33C37.961 33.33 38.1365 33.3456 38.312 33.3469V33.2573H38.2573C37.9251 33.2569 37.8418 33.1114 37.8418 32.7428V30.9505L40.0411 33.4096ZM39.9464 32.5223V32.5212L39.9431 32.518L39.9464 32.5223Z" fill="#1A1919"/>
<path fill-rule="evenodd" clip-rule="evenodd" d="M41.2973 32.7598C41.2559 32.9032 41.2047 33.0145 41.2047 33.0897C41.2047 33.217 41.3831 33.238 41.5219 33.238H41.5691V33.3651C41.3996 33.356 41.2259 33.3488 41.0563 33.3488C40.9039 33.3488 40.7517 33.356 40.5999 33.3651V33.238H40.6239C40.7899 33.238 40.9302 33.1404 40.9921 32.9625L41.6709 31.0198C41.7256 30.8627 41.8022 30.6511 41.8266 30.4941C41.9626 30.4477 42.1316 30.3636 42.2131 30.3121C42.225 30.3078 42.2335 30.3035 42.2466 30.3035C42.259 30.3035 42.267 30.3035 42.2756 30.3168C42.2885 30.3503 42.3011 30.3885 42.3139 30.4223L43.093 32.637C43.1435 32.7848 43.1946 32.9414 43.2499 33.0691C43.3008 33.1879 43.3895 33.238 43.5291 33.238H43.5553V33.3651C43.3644 33.356 43.1736 33.3488 42.9703 33.3488C42.7632 33.3488 42.5512 33.356 42.335 33.3651V33.238H42.3819C42.4787 33.238 42.6448 33.2212 42.6448 33.1153C42.6448 33.0606 42.6068 32.9462 42.5595 32.8101L42.3944 32.3192H41.4335L41.2973 32.7598ZM41.9165 30.884H41.908L41.5132 32.0824H42.3062L41.9165 30.884Z" fill="#1A1919"/>
<path fill-rule="evenodd" clip-rule="evenodd" d="M43.5534 33.3833C43.3626 33.3757 43.1725 33.3662 42.9705 33.3662C42.7639 33.3662 42.5517 33.3757 42.336 33.3833L42.3173 33.3842V33.2197H42.3817C42.4801 33.2197 42.6259 33.1968 42.6261 33.1153C42.6272 33.067 42.5889 32.9515 42.5413 32.8164L42.3807 32.3373H41.446L41.3152 32.7653C41.2726 32.9103 41.2226 33.021 41.2231 33.0896C41.2231 33.1933 41.3819 33.2197 41.5218 33.2197H41.5866V33.3842L41.5675 33.3833C41.3984 33.3757 41.225 33.3662 41.0564 33.3662C40.9046 33.3662 40.7527 33.3757 40.5999 33.3833L40.5815 33.3842V33.2197H40.624C40.7819 33.2189 40.9139 33.1284 40.9759 32.9566L41.6531 31.0132C41.7074 30.8565 41.7838 30.6459 41.821 30.4773C41.954 30.4311 42.1241 30.3461 42.2065 30.295C42.2174 30.2908 42.2292 30.2858 42.2465 30.2858C42.2575 30.2848 42.2797 30.2874 42.2927 30.3106C42.3056 30.3439 42.3181 30.3824 42.3318 30.4165L43.1104 32.6309C43.1614 32.7792 43.2119 32.9356 43.2668 33.0619C43.3167 33.1739 43.3933 33.2185 43.5287 33.2197H43.5725V33.3842L43.5534 33.3833ZM42.3531 33.3459C42.5626 33.3382 42.7685 33.33 42.9705 33.33C43.1673 33.33 43.3515 33.3382 43.5362 33.3456L43.5358 33.257H43.5287C43.3853 33.2573 43.2854 33.2008 43.2326 33.076C43.1767 32.9481 43.1264 32.7909 43.0757 32.6431L42.2966 30.428C42.2841 30.3942 42.2706 30.3564 42.2607 30.3271C42.2571 30.3221 42.2575 30.3221 42.2549 30.3221H42.2465C42.2374 30.3221 42.2328 30.325 42.2227 30.3279C42.1398 30.3797 41.9704 30.4646 41.8454 30.4968C41.8192 30.6572 41.7422 30.8684 41.6877 31.0257L41.0096 32.9686C40.9451 33.1527 40.7972 33.2573 40.624 33.257H40.6178V33.3456C40.7636 33.3382 40.9091 33.33 41.0564 33.33C41.2203 33.33 41.3879 33.3382 41.5505 33.3456V33.257H41.5218C41.3842 33.2551 41.1912 33.2404 41.1857 33.0896C41.1869 33.006 41.239 32.898 41.2805 32.7546L41.4197 32.3016H42.4066L42.5768 32.8043C42.6233 32.9406 42.662 33.0534 42.662 33.1153C42.6559 33.2449 42.4778 33.2545 42.3817 33.257H42.3531V33.3459ZM41.488 32.1004L41.8946 30.8652H41.9166H41.9294L42.3298 32.1004H41.488ZM41.5391 32.0636H42.2799L41.9116 30.9297L41.5391 32.0636Z" fill="#1A1919"/>
<path fill-rule="evenodd" clip-rule="evenodd" d="M44.6218 32.95C44.6218 33.1202 44.7395 33.1703 44.8753 33.188C45.0486 33.2006 45.2394 33.2006 45.4347 33.179C45.6123 33.1577 45.7647 33.0567 45.8407 32.95C45.9079 32.857 45.9461 32.7384 45.9721 32.6454H46.0945C46.0479 32.8868 45.9887 33.1242 45.9379 33.3652C45.5661 33.3652 45.1923 33.3489 44.8204 33.3489C44.4474 33.3489 44.0752 33.3652 43.7026 33.3652V33.2379H43.7613C43.914 33.2379 44.0798 33.2172 44.0798 32.9546V30.7786C44.0798 30.5579 43.914 30.5368 43.7613 30.5368H43.7026V30.4097C43.9267 30.4097 44.1472 30.4265 44.3713 30.4265C44.5876 30.4265 44.7989 30.4097 45.0154 30.4097V30.5368H44.909C44.7481 30.5368 44.6218 30.5413 44.6218 30.7657V32.95Z" fill="#1A1919"/>
<path fill-rule="evenodd" clip-rule="evenodd" d="M45.9379 33.3832C45.5645 33.3832 45.1916 33.3663 44.8202 33.3663C44.4477 33.3663 44.0751 33.3832 43.7017 33.3832H43.6838V33.2196H43.7611C43.9142 33.2159 44.0596 33.2052 44.0613 32.9545V30.7778C44.0596 30.5716 43.9148 30.5579 43.7611 30.5551H43.6838V30.3912H43.7017C43.9272 30.3912 44.1475 30.4077 44.3708 30.4077C44.5864 30.4077 44.7973 30.3912 45.0152 30.3912H45.0322V30.5551H44.9088C44.7446 30.5593 44.6426 30.5519 44.6389 30.7656V32.9499C44.64 33.1082 44.7438 33.1505 44.8761 33.1694C44.9506 33.1746 45.0295 33.1773 45.1109 33.1773C45.2145 33.1773 45.322 33.1725 45.4314 33.1609C45.6039 33.1404 45.7523 33.0407 45.8255 32.9398C45.8909 32.8492 45.9278 32.7332 45.9534 32.6411L45.957 32.6271H46.1166L46.1129 32.6494C46.065 32.8914 46.0067 33.1276 45.9554 33.369L45.952 33.3832H45.9379ZM45.9224 33.3467C45.9714 33.1167 46.0267 32.8918 46.0725 32.6635H45.9852C45.9592 32.7556 45.9214 32.8693 45.8551 32.9614C45.7758 33.071 45.6191 33.1746 45.4354 33.1973C45.3247 33.2086 45.2146 33.2143 45.1109 33.2143C45.0289 33.2143 44.9497 33.2106 44.8726 33.2052C44.7349 33.1901 44.6017 33.131 44.6019 32.9499V30.7656C44.6019 30.5302 44.7508 30.5179 44.9088 30.5179H44.996V30.4278C44.7875 30.4292 44.5816 30.4451 44.3708 30.4451C44.1521 30.4451 43.9374 30.4292 43.7208 30.4278V30.5179H43.7611C43.9121 30.5179 44.0969 30.5444 44.0969 30.7778V32.9545C44.0969 33.2286 43.9129 33.2569 43.7611 33.2569H43.7208V33.3467C44.0865 33.3459 44.4525 33.33 44.8202 33.33C45.1883 33.33 45.5559 33.3459 45.9224 33.3467Z" fill="#1A1919"/>
<path fill-rule="evenodd" clip-rule="evenodd" d="M19.5974 15.4617C19.5974 11.5013 22.8079 8.29077 26.7681 8.29077C30.7286 8.29077 33.9391 11.5013 33.9391 15.4617C33.9391 19.4221 30.7286 22.6328 26.7681 22.6328C22.8079 22.6328 19.5974 19.4221 19.5974 15.4617Z" fill="#FFFFFE"/>
<path fill-rule="evenodd" clip-rule="evenodd" d="M31.105 15.3205C31.102 13.4842 29.9543 11.918 28.3368 11.2978V19.343C29.9543 18.722 31.102 17.1572 31.105 15.3205ZM25.2513 19.3414V11.2986C23.6352 11.9208 22.4891 13.4847 22.4849 15.3205C22.4891 17.156 23.6352 18.7197 25.2513 19.3414ZM26.7948 8.5205C23.0394 8.52194 19.9968 11.5651 19.9962 15.3205C19.9968 19.0756 23.0394 22.1182 26.7948 22.1188C30.5502 22.1182 33.5935 19.0756 33.5944 15.3205C33.5935 11.5651 30.5502 8.52194 26.7948 8.5205ZM26.7782 22.7606C22.6687 22.7802 19.2864 19.4509 19.2864 15.3981C19.2864 10.9689 22.6687 7.90539 26.7782 7.90619H28.704C32.7649 7.90539 36.4711 10.9675 36.4711 15.3981C36.4711 19.4494 32.7649 22.7606 28.704 22.7606H26.7782Z" fill="#0069AA"/>
<path fill-rule="evenodd" clip-rule="evenodd" d="M9.70874 33.2379H9.7682C9.92046 33.2379 10.0814 33.2172 10.0814 32.9967V30.7786C10.0814 30.5579 9.92046 30.5369 9.7682 30.5369H9.70874V30.4097C9.87382 30.4097 10.1278 30.4265 10.3359 30.4265C10.5474 30.4265 10.8011 30.4097 11.0002 30.4097V30.5369H10.9404C10.7888 30.5369 10.6276 30.5579 10.6276 30.7786V32.9967C10.6276 33.2172 10.7888 33.2379 10.9404 33.2379H11.0002V33.3652C10.7971 33.3652 10.5425 33.3489 10.3316 33.3489C10.1237 33.3489 9.87382 33.3652 9.70874 33.3652V33.2379Z" fill="#1A1919"/>
<path fill-rule="evenodd" clip-rule="evenodd" d="M11.0001 33.3832C10.7952 33.3832 10.5419 33.3663 10.3311 33.3663C10.1239 33.3663 9.87482 33.3832 9.70862 33.3832H9.69019V33.2196H9.76776C9.92146 33.2159 10.0612 33.2036 10.0625 32.9966V30.7786C10.0612 30.5713 9.92146 30.5579 9.76776 30.5551H9.69019V30.3912H9.70862C9.87482 30.3912 10.1287 30.4077 10.3358 30.4077C10.5463 30.4077 10.7999 30.3912 11.0001 30.3912H11.019V30.5551H10.9411C10.7872 30.5579 10.6467 30.5713 10.6459 30.7786V32.9966C10.6467 33.2036 10.7872 33.2159 10.9411 33.2196H11.019V33.3832H11.0001ZM10.9818 33.347L10.982 33.2569H10.9411C10.7896 33.2569 10.6097 33.2304 10.6087 32.9966V30.7786C10.6097 30.5444 10.7896 30.5183 10.9411 30.5183H10.9818V30.4278C10.7864 30.428 10.5411 30.4451 10.3358 30.4451C10.1346 30.4451 9.89116 30.4292 9.72721 30.4278V30.5183H9.76776C9.91873 30.5183 10.099 30.5444 10.099 30.7786V32.9966C10.099 33.2304 9.91873 33.2569 9.76776 33.2569H9.72721V33.347C9.89116 33.3456 10.1303 33.33 10.3311 33.33C10.5374 33.33 10.7821 33.3459 10.9818 33.347Z" fill="#1A1919"/>
<path fill-rule="evenodd" clip-rule="evenodd" d="M46.0428 30.2896C46.2983 30.2896 46.4888 30.4857 46.4888 30.7364C46.4888 30.9869 46.2983 31.181 46.0428 31.181C45.788 31.181 45.5972 30.9869 45.5972 30.7364C45.5972 30.4857 45.788 30.2896 46.0428 30.2896ZM46.0428 31.0981C46.2428 31.0981 46.3956 30.9281 46.3956 30.7364C46.3956 30.5444 46.2446 30.373 46.0428 30.373C45.8422 30.373 45.6896 30.5444 45.6896 30.7364C45.6896 30.9281 45.8422 31.0981 46.0428 31.0981ZM45.8212 30.9715V30.9498C45.8757 30.942 45.8859 30.9434 45.8859 30.9101V30.5796C45.8859 30.5332 45.8813 30.5171 45.8229 30.5197V30.4969H46.0512C46.1295 30.4969 46.2018 30.5344 46.2018 30.6155C46.2018 30.6818 46.1583 30.7309 46.0963 30.75L46.1698 30.8522C46.2039 30.8985 46.2428 30.942 46.2679 30.9574V30.9715H46.1812C46.1395 30.9715 46.1026 30.884 46.0209 30.7665H45.9716V30.9142C45.9716 30.9434 45.9818 30.942 46.0366 30.9498V30.9715H45.8212ZM45.9716 30.7364H46.0241C46.0816 30.7364 46.1082 30.6929 46.1082 30.6226C46.1082 30.5517 46.0672 30.5266 46.0212 30.5266H45.9716V30.7364Z" fill="#1A1919"/>
</svg>
