<svg width="58" height="40" viewBox="0 0 58 40" fill="none" xmlns="http://www.w3.org/2000/svg">
<path d="M6 0.5H52C55.0376 0.5 57.5 2.96243 57.5 6V34C57.5 37.0376 55.0376 39.5 52 39.5H6C2.96243 39.5 0.5 37.0376 0.5 34V6C0.5 3.05741 2.81084 0.654222 5.7168 0.506836L6 0.5Z" fill="white"/>
<path d="M6 0.5H52C55.0376 0.5 57.5 2.96243 57.5 6V34C57.5 37.0376 55.0376 39.5 52 39.5H6C2.96243 39.5 0.5 37.0376 0.5 34V6C0.5 3.05741 2.81084 0.654222 5.7168 0.506836L6 0.5Z" stroke="#E5E5E5"/>
<path fill-rule="evenodd" clip-rule="evenodd" d="M19.8191 19.9936C19.8191 22.2368 21.7069 23.976 24.1364 23.976C24.823 23.976 25.4114 23.8501 26.1366 23.5314V21.7792C25.499 22.3747 24.9339 22.615 24.2106 22.615C22.6038 22.615 21.4633 21.5279 21.4633 19.9824C21.4633 18.5173 22.6398 17.3615 24.1364 17.3615C24.8973 17.3615 25.4734 17.6149 26.1366 18.2201V16.4688C25.4364 16.1374 24.8606 16 24.174 16C21.7569 16 19.8191 17.7746 19.8191 19.9936ZM15.7249 18.1402C15.7249 18.5526 16.0058 18.7705 16.9633 19.1011C18.7781 19.7205 19.3159 20.2692 19.3159 21.4818C19.3159 22.959 18.1528 23.9877 16.495 23.9877C15.2809 23.9877 14.398 23.5417 13.663 22.5347L14.6938 21.6087C15.061 22.2714 15.674 22.6267 16.435 22.6267C17.1469 22.6267 17.6737 22.1685 17.6737 21.5503C17.6737 21.2298 17.5141 20.9547 17.1953 20.7604C17.035 20.6684 16.7171 20.5316 16.0924 20.3258C14.5939 19.8228 14.0802 19.2844 14.0802 18.2331C14.0802 16.9841 15.1839 16.0465 16.6312 16.0465C17.528 16.0465 18.3487 16.3325 19.0346 16.8924L18.1998 17.9122C17.7843 17.4777 17.3912 17.2942 16.9134 17.2942C16.2258 17.2942 15.7249 17.6596 15.7249 18.1402ZM11.4667 23.8042H13.0622V16.1726H11.4667V23.8042ZM8.20562 21.9055C7.70445 22.328 7.05318 22.5122 6.02239 22.5122H5.59421V17.4654H6.02239C7.05318 17.4654 7.67886 17.6377 8.20562 18.0829C8.75736 18.541 9.08916 19.2516 9.08916 19.9825C9.08916 20.7152 8.75736 21.4473 8.20562 21.9055ZM6.34187 16.1726H4V23.8039H6.32954C7.56825 23.8039 8.46253 23.5315 9.24779 22.9229C10.1809 22.2027 10.7327 21.1168 10.7327 19.9937C10.7327 17.7415 8.92927 16.1726 6.34187 16.1726ZM36.6055 16.1726L38.7865 21.2987L40.996 16.1726H42.7254L39.192 24H38.3333L34.8624 16.1726H36.6055ZM43.4469 23.8041H47.9714V22.5121H45.041V20.4521H47.8636V19.1594H45.041V17.4656H47.9714V16.1724H43.4469V23.8041ZM50.6215 19.6859H51.0876C52.1067 19.6859 52.6468 19.2728 52.6468 18.5057C52.6468 17.763 52.1067 17.3747 51.1129 17.3747H50.6215V19.6859ZM51.3938 16.1723C53.2336 16.1723 54.2883 16.9967 54.2883 18.4255C54.2883 19.594 53.6267 20.3611 52.425 20.589L55 23.804H53.038L50.8297 20.7382H50.6215V23.804H49.0279V16.1723H51.3938Z" fill="#1D1D1B"/>
<path fill-rule="evenodd" clip-rule="evenodd" d="M34.3692 22.1548C35.5595 20.2935 35.0159 17.8209 33.1549 16.6308C31.2939 15.4406 28.8208 15.9839 27.6305 17.8452C26.4405 19.7059 26.9844 22.1793 28.8453 23.3694C30.7063 24.5596 33.1792 24.0154 34.3692 22.1548Z" fill="url(#paint0_linear_7743_2756)"/>
<defs>
<linearGradient id="paint0_linear_7743_2756" x1="36.524" y1="18.7854" x2="29.7853" y2="14.4758" gradientUnits="userSpaceOnUse">
<stop stop-color="#F6A000"/>
<stop offset="0.623918" stop-color="#E47E02"/>
<stop offset="1" stop-color="#D36002"/>
</linearGradient>
</defs>
</svg>
