<svg width="58" height="40" viewBox="0 0 58 40" fill="none" xmlns="http://www.w3.org/2000/svg">
<path d="M6 0.5H52C55.0376 0.5 57.5 2.96243 57.5 6V34C57.5 37.0376 55.0376 39.5 52 39.5H6C2.96243 39.5 0.5 37.0376 0.5 34V6C0.5 2.96243 2.96243 0.5 6 0.5Z" fill="white"/>
<path d="M6 0.5H52C55.0376 0.5 57.5 2.96243 57.5 6V34C57.5 37.0376 55.0376 39.5 52 39.5H6C2.96243 39.5 0.5 37.0376 0.5 34V6C0.5 2.96243 2.96243 0.5 6 0.5Z" stroke="#E5E5E5"/>
<path fill-rule="evenodd" clip-rule="evenodd" d="M28.6312 28.0494C26.6579 29.7126 24.0982 30.7166 21.3011 30.7166C15.0597 30.7166 10 25.7171 10 19.55C10 13.3828 15.0597 8.38329 21.3011 8.38329C24.0982 8.38329 26.6579 9.38731 28.6312 11.0505C30.6046 9.38731 33.1643 8.38329 35.9613 8.38329C42.2028 8.38329 47.2625 13.3828 47.2625 19.55C47.2625 25.7171 42.2028 30.7166 35.9613 30.7166C33.1643 30.7166 30.6046 29.7126 28.6312 28.0494Z" fill="#ED0006"/>
<path fill-rule="evenodd" clip-rule="evenodd" d="M28.6313 28.0494C31.0615 26.0012 32.6024 22.9534 32.6024 19.55C32.6024 16.1465 31.0615 13.0987 28.6313 11.0505C30.6047 9.38731 33.1644 8.38329 35.9614 8.38329C42.2029 8.38329 47.2626 13.3828 47.2626 19.55C47.2626 25.7171 42.2029 30.7166 35.9614 30.7166C33.1644 30.7166 30.6047 29.7126 28.6313 28.0494Z" fill="#F9A000"/>
<path fill-rule="evenodd" clip-rule="evenodd" d="M28.6311 28.0496C31.0613 26.0015 32.6023 22.9536 32.6023 19.5501C32.6023 16.1467 31.0614 13.0989 28.6313 11.0508C26.2011 13.0989 24.6602 16.1468 24.6602 19.5503C24.6602 22.9537 26.2011 26.0015 28.6311 28.0496Z" fill="#FF5E00"/>
</svg>
