<svg width="20" height="20" viewBox="0 0 20 20"  fill="#4338CA" xmlns="http://www.w3.org/2000/svg">
  <path d="M1.6709 7.91667V3.33333C1.6709 2.8731 2.044 2.5 2.50423 2.5H17.5042C17.9645 2.5 18.3376 2.8731 18.3376 3.33333V7.91667C17.187 7.91667 16.2542 8.84942 16.2542 10C16.2542 11.1506 17.187 12.0833 18.3376 12.0833V16.6667C18.3376 17.1269 17.9645 17.5 17.5042 17.5H2.50423C2.044 17.5 1.6709 17.1269 1.6709 16.6667V12.0833C2.82149 12.0833 3.75423 11.1506 3.75423 10C3.75423 8.84942 2.82149 7.91667 1.6709 7.91667ZM3.33757 6.6398C4.57233 7.25342 5.4209 8.52758 5.4209 10C5.4209 11.4724 4.57233 12.7466 3.33757 13.3602V15.8333H16.6709V13.3602C15.4362 12.7466 14.5876 11.4724 14.5876 10C14.5876 8.52758 15.4362 7.25342 16.6709 6.6398V4.16667H3.33757V6.6398ZM7.50423 7.5H12.5042V9.16667H7.50423V7.5ZM7.50423 10.8333H12.5042V12.5H7.50423V10.8333Z" />
</svg>