<svg width="16" height="16" viewBox="0 0 16 16" fill="#A3A3A3" xmlns="http://www.w3.org/2000/svg">
  <path d="M7.99992 14.6667C4.31802 14.6667 1.33325 11.6819 1.33325 8C1.33325 4.31809 4.31802 1.33333 7.99992 1.33333C11.6818 1.33333 14.6666 4.31809 14.6666 8C14.6666 11.6819 11.6818 14.6667 7.99992 14.6667ZM7.99992 13.3333C10.9455 13.3333 13.3333 10.9455 13.3333 8C13.3333 5.05447 10.9455 2.66666 7.99992 2.66666C5.0544 2.66666 2.66659 5.05447 2.66659 8C2.66659 10.9455 5.0544 13.3333 7.99992 13.3333ZM7.33325 10H8.66659V11.3333H7.33325V10ZM8.66659 8.90339V9.33333H7.33325V8.33333C7.33325 7.96513 7.63172 7.66666 7.99992 7.66666C8.55219 7.66666 8.99992 7.21893 8.99992 6.66666C8.99992 6.11438 8.55219 5.66666 7.99992 5.66666C7.51479 5.66666 7.11032 6.01215 7.01912 6.47051L5.71146 6.20897C5.92417 5.13946 6.86792 4.33333 7.99992 4.33333C9.28859 4.33333 10.3333 5.378 10.3333 6.66666C10.3333 7.72366 9.63039 8.61653 8.66659 8.90339Z"  />
</svg>