<svg width="17" height="18" viewBox="0 0 17 18" fill="white"  xmlns="http://www.w3.org/2000/svg">
  <path d="M13.3611 7.61122H14.0556C14.4391 7.61122 14.75 7.92212 14.75 8.30566V15.2501C14.75 15.6337 14.4391 15.9446 14.0556 15.9446H2.94444C2.56092 15.9446 2.25 15.6337 2.25 15.2501V8.30566C2.25 7.92212 2.56092 7.61122 2.94444 7.61122H3.63889V6.91678C3.63889 4.23206 5.81528 2.05566 8.5 2.05566C11.1847 2.05566 13.3611 4.23206 13.3611 6.91678V7.61122ZM3.63889 9.00011V14.5557H13.3611V9.00011H3.63889ZM7.80556 10.389H9.19444V13.1668H7.80556V10.389ZM11.9722 7.61122V6.91678C11.9722 4.99912 10.4176 3.44455 8.5 3.44455C6.58235 3.44455 5.02778 4.99912 5.02778 6.91678V7.61122H11.9722Z" />
</svg>